<?xml version="1.0" standalone="no"?>
<!DOCTYPE svg PUBLIC "-//W3C//DTD SVG 20010904//EN"
 "http://www.w3.org/TR/2001/REC-SVG-20010904/DTD/svg10.dtd">
<svg version="1.0" xmlns="http://www.w3.org/2000/svg"
 width="99.000000pt" height="99.000000pt" viewBox="0 0 99.000000 99.000000"
 preserveAspectRatio="xMidYMid meet">

<g transform="translate(0.000000,99.000000) scale(0.100000,-0.100000)"
fill="#000000" stroke="none">
<path d="M124 842 c-12 -2 -32 -14 -45 -28 -24 -25 -24 -28 -27 -280 l-3 -255
30 -29 c24 -24 38 -30 74 -30 42 0 45 -2 51 -30 6 -35 36 -50 96 -50 60 0 88
15 92 47 l3 28 100 0 100 0 3 -28 c4 -32 32 -47 92 -47 60 0 90 15 96 50 6 28
9 30 51 30 36 0 50 6 74 30 l30 29 -3 256 -3 255 -27 27 -28 27 -147 -3 c-81
-1 -150 -4 -152 -7 -2 -2 60 -4 138 -4 l143 0 30 -31 31 -30 -7 -106 c-3 -58
-6 -166 -6 -240 0 -120 -2 -135 -20 -153 -19 -19 -33 -20 -395 -20 -351 0
-376 1 -393 18 -17 17 -19 44 -25 256 -7 253 -4 275 40 295 13 6 83 12 156 13
73 0 119 3 102 4 -48 5 -228 9 -251 6z m241 -642 c0 -12 -14 -15 -65 -15 -54
0 -65 3 -68 18 -3 16 3 18 65 15 52 -2 68 -6 68 -18z m393 3 c-3 -14 -15 -19
-62 -21 -32 -2 -63 1 -69 7 -19 19 6 31 69 31 57 0 65 -2 62 -17z"/>
<path d="M304 709 c-3 -6 -9 -87 -12 -180 -5 -181 -1 -199 44 -199 48 0 54 29
45 208 -4 89 -10 164 -13 167 -3 4 -9 -71 -13 -165 -6 -135 -10 -170 -21 -170
-14 0 -18 67 -19 298 0 56 0 58 -11 41z"/>
<path d="M444 708 c-4 -6 -11 -84 -15 -172 -9 -177 -3 -206 45 -206 45 0 49
17 44 201 -3 93 -9 174 -14 179 -5 5 -9 -14 -9 -48 -1 -222 -5 -292 -19 -292
-10 0 -15 36 -21 165 -3 90 -4 169 0 175 3 5 4 10 1 10 -3 0 -8 -5 -12 -12z"/>
<path d="M166 701 c-3 -4 -8 -82 -12 -172 -6 -148 -5 -166 10 -182 22 -22 50
-22 72 0 15 15 16 34 10 183 -4 91 -11 168 -14 172 -4 4 -8 -36 -10 -90 -5
-197 -19 -283 -36 -224 -3 9 -6 86 -8 170 -1 83 -3 152 -5 152 -1 0 -4 -4 -7
-9z"/>
<path d="M577 703 c-3 -5 -8 -82 -12 -174 -7 -148 -6 -167 9 -182 22 -22 50
-22 72 0 15 16 16 34 10 182 -4 91 -10 169 -14 173 -4 4 -9 -66 -10 -155 -2
-89 -6 -165 -9 -169 -19 -32 -29 42 -35 244 -3 90 -4 93 -11 81z"/>
<path d="M730 670 c-11 -11 -20 -27 -20 -35 0 -21 45 -65 65 -65 20 0 65 44
65 65 0 18 -35 55 -52 55 -6 0 -3 -9 8 -21 21 -23 9 -54 -21 -54 -30 0 -42 31
-21 54 24 27 2 27 -24 1z"/>
<path d="M725 476 c-30 -46 18 -99 75 -81 31 10 44 52 25 81 -19 30 -40 33
-25 3 16 -28 5 -49 -24 -49 -28 0 -40 24 -26 51 16 28 -6 24 -25 -5z"/>
</g>
</svg>
